<mxfile host="app.diagrams.net" agent="Mozilla/5.0 (X11; Linux x86_64) AppleWebKit/537.36 (KHTML, like Gecko) Chrome/134.0.0.0 Safari/537.36" version="26.1.0">
  <diagram name="Pagina-1" id="IjJnmXmjRmm-rZUCtE4m">
    <mxGraphModel dx="2261" dy="786" grid="1" gridSize="10" guides="1" tooltips="1" connect="1" arrows="1" fold="1" page="1" pageScale="1" pageWidth="827" pageHeight="1169" math="0" shadow="0">
      <root>
        <mxCell id="0" />
        <mxCell id="1" parent="0" />
        <mxCell id="3-KLOooi5ENP4IrTd0Cn-2" value="Input Sentence" style="rounded=1;html=1;glass=0;shadow=1;pointerEvents=0;align=center;verticalAlign=middle;fontFamily=Helvetica;fontSize=14;fillColor=#d5e8d4;strokeColor=#82b366;textShadow=1;whiteSpace=wrap;" parent="1" vertex="1">
          <mxGeometry x="-523.09" y="130" width="120" height="60" as="geometry" />
        </mxCell>
        <mxCell id="qkBd6DQFq6oWj8cSMgXT-24" value="" style="group;textShadow=1;whiteSpace=wrap;fontSize=14;" parent="1" vertex="1" connectable="0">
          <mxGeometry x="-568.09" y="220" width="210" height="190" as="geometry" />
        </mxCell>
        <mxCell id="qkBd6DQFq6oWj8cSMgXT-20" value="&lt;span style=&quot;font-style: normal;&quot;&gt;&lt;b&gt;&lt;font&gt;Large Language Model&lt;/font&gt;&lt;/b&gt;&lt;/span&gt;" style="rounded=1;html=1;fillColor=#CCE5FF;strokeColor=#3399FF;fontSize=14;fontStyle=2;shadow=1;textShadow=1;labelPosition=center;verticalLabelPosition=middle;align=center;verticalAlign=top;whiteSpace=wrap;" parent="qkBd6DQFq6oWj8cSMgXT-24" vertex="1">
          <mxGeometry width="210" height="181.36363636363637" as="geometry" />
        </mxCell>
        <mxCell id="qkBd6DQFq6oWj8cSMgXT-23" style="edgeStyle=orthogonalEdgeStyle;rounded=0;orthogonalLoop=1;jettySize=auto;html=1;strokeWidth=4;exitX=0.5;exitY=1;exitDx=0;exitDy=0;entryX=0.5;entryY=0;entryDx=0;entryDy=0;shadow=1;textShadow=1;flowAnimation=0;fontSize=14;" parent="qkBd6DQFq6oWj8cSMgXT-24" source="qkBd6DQFq6oWj8cSMgXT-69" target="qkBd6DQFq6oWj8cSMgXT-70" edge="1">
          <mxGeometry relative="1" as="geometry">
            <mxPoint x="105" y="72.19999999999992" as="sourcePoint" />
            <mxPoint x="105" y="114" as="targetPoint" />
            <Array as="points" />
          </mxGeometry>
        </mxCell>
        <mxCell id="qkBd6DQFq6oWj8cSMgXT-69" value="&lt;div&gt;LLM&lt;/div&gt;" style="rounded=1;html=1;shadow=1;textShadow=1;whiteSpace=wrap;fontSize=14;" parent="qkBd6DQFq6oWj8cSMgXT-24" vertex="1">
          <mxGeometry x="45" y="34.54545454545455" width="120" height="43.18181818181818" as="geometry" />
        </mxCell>
        <mxCell id="qkBd6DQFq6oWj8cSMgXT-70" value="Classification Head" style="rounded=1;html=1;shadow=1;textShadow=1;whiteSpace=wrap;fontSize=14;" parent="qkBd6DQFq6oWj8cSMgXT-24" vertex="1">
          <mxGeometry x="45" y="103.63636363636364" width="120" height="43.18181818181818" as="geometry" />
        </mxCell>
        <mxCell id="qkBd6DQFq6oWj8cSMgXT-64" value="" style="group;textShadow=1;whiteSpace=wrap;fontSize=14;" parent="1" vertex="1" connectable="0">
          <mxGeometry x="-558.09" y="800" width="340" height="190" as="geometry" />
        </mxCell>
        <mxCell id="3-KLOooi5ENP4IrTd0Cn-23" value="" style="rounded=1;html=1;fillColor=#fff2cc;strokeColor=#d6b656;shadow=1;textShadow=1;whiteSpace=wrap;fontSize=14;" parent="qkBd6DQFq6oWj8cSMgXT-64" vertex="1">
          <mxGeometry width="180" height="180" as="geometry" />
        </mxCell>
        <mxCell id="3-KLOooi5ENP4IrTd0Cn-17" value="Raw Logit" style="rounded=1;html=1;shadow=1;textShadow=1;whiteSpace=wrap;fontSize=14;" parent="qkBd6DQFq6oWj8cSMgXT-64" vertex="1">
          <mxGeometry x="30" y="60" width="120" height="20" as="geometry" />
        </mxCell>
        <mxCell id="3-KLOooi5ENP4IrTd0Cn-18" value="Softmax" style="rounded=1;html=1;shadow=1;textShadow=1;whiteSpace=wrap;fontSize=14;" parent="qkBd6DQFq6oWj8cSMgXT-64" vertex="1">
          <mxGeometry x="30" y="95" width="120" height="20" as="geometry" />
        </mxCell>
        <mxCell id="3-KLOooi5ENP4IrTd0Cn-19" value="&lt;div&gt;Threshold &lt;br&gt;&lt;/div&gt;" style="rounded=1;html=1;shadow=1;textShadow=1;whiteSpace=wrap;fontSize=14;" parent="qkBd6DQFq6oWj8cSMgXT-64" vertex="1">
          <mxGeometry x="30" y="130" width="120" height="20" as="geometry" />
        </mxCell>
        <mxCell id="3-KLOooi5ENP4IrTd0Cn-43" style="edgeStyle=orthogonalEdgeStyle;rounded=1;orthogonalLoop=1;jettySize=auto;html=1;exitX=0;exitY=0.5;exitDx=0;exitDy=0;entryX=1;entryY=0.5;entryDx=0;entryDy=0;shadow=1;curved=0;textShadow=1;fontSize=14;" parent="qkBd6DQFq6oWj8cSMgXT-64" source="3-KLOooi5ENP4IrTd0Cn-21" target="3-KLOooi5ENP4IrTd0Cn-19" edge="1">
          <mxGeometry relative="1" as="geometry" />
        </mxCell>
        <mxCell id="3-KLOooi5ENP4IrTd0Cn-21" value="Optimized on dev" style="rounded=1;html=1;movable=1;resizable=1;rotatable=1;deletable=1;editable=1;locked=0;connectable=1;shadow=1;textShadow=1;whiteSpace=wrap;fontSize=14;" parent="qkBd6DQFq6oWj8cSMgXT-64" vertex="1">
          <mxGeometry x="190" y="130" width="120" height="20" as="geometry" />
        </mxCell>
        <mxCell id="3-KLOooi5ENP4IrTd0Cn-59" value="" style="endArrow=none;html=1;rounded=0;entryX=0.5;entryY=1;entryDx=0;entryDy=0;exitX=0.5;exitY=0;exitDx=0;exitDy=0;shadow=1;textShadow=1;fontSize=14;" parent="qkBd6DQFq6oWj8cSMgXT-64" source="3-KLOooi5ENP4IrTd0Cn-18" target="3-KLOooi5ENP4IrTd0Cn-17" edge="1">
          <mxGeometry width="50" height="50" relative="1" as="geometry">
            <mxPoint x="-5" y="93" as="sourcePoint" />
            <mxPoint x="45" y="43" as="targetPoint" />
          </mxGeometry>
        </mxCell>
        <mxCell id="_UJbNQESPIWGQFi5cG9G-17" value="" style="endArrow=none;html=1;rounded=0;exitX=0.5;exitY=0;exitDx=0;exitDy=0;entryX=0.5;entryY=1;entryDx=0;entryDy=0;shadow=1;textShadow=1;fontSize=14;" parent="qkBd6DQFq6oWj8cSMgXT-64" source="3-KLOooi5ENP4IrTd0Cn-19" target="3-KLOooi5ENP4IrTd0Cn-18" edge="1">
          <mxGeometry width="50" height="50" relative="1" as="geometry">
            <mxPoint x="180" y="104" as="sourcePoint" />
            <mxPoint x="230" y="54" as="targetPoint" />
          </mxGeometry>
        </mxCell>
        <mxCell id="3-KLOooi5ENP4IrTd0Cn-34" value="&lt;b&gt;&lt;font&gt;Decision Threshold&amp;nbsp; Calibration&lt;/font&gt;&lt;/b&gt;" style="text;html=1;align=center;verticalAlign=middle;rounded=0;shadow=1;textShadow=1;whiteSpace=wrap;fontSize=14;" parent="qkBd6DQFq6oWj8cSMgXT-64" vertex="1">
          <mxGeometry x="20" y="10" width="140" height="30" as="geometry" />
        </mxCell>
        <mxCell id="3-KLOooi5ENP4IrTd0Cn-20" value="&lt;div&gt;&lt;i&gt;&lt;font&gt;Final predictions&lt;/font&gt;&lt;/i&gt;&lt;/div&gt;" style="rounded=1;html=1;shadow=1;strokeColor=#9673A6;align=center;verticalAlign=top;fontFamily=Helvetica;fontSize=14;fontColor=default;fontStyle=2;fillColor=#e1d5e7;textShadow=1;whiteSpace=wrap;" parent="1" vertex="1">
          <mxGeometry x="-530.09" y="1010" width="120" height="30" as="geometry" />
        </mxCell>
        <mxCell id="3-KLOooi5ENP4IrTd0Cn-45" style="edgeStyle=orthogonalEdgeStyle;rounded=1;orthogonalLoop=1;jettySize=auto;html=1;exitX=0;exitY=0.5;exitDx=0;exitDy=0;entryX=1;entryY=0.5;entryDx=0;entryDy=0;shadow=1;curved=0;textShadow=1;fontSize=14;" parent="1" source="3-KLOooi5ENP4IrTd0Cn-44" target="3-KLOooi5ENP4IrTd0Cn-20" edge="1">
          <mxGeometry relative="1" as="geometry" />
        </mxCell>
        <mxCell id="3-KLOooi5ENP4IrTd0Cn-44" value="Computed on dev-test" style="rounded=1;html=1;shadow=1;textShadow=1;whiteSpace=wrap;fontSize=14;" parent="1" vertex="1">
          <mxGeometry x="-368.09" y="1015" width="140" height="20" as="geometry" />
        </mxCell>
        <mxCell id="qkBd6DQFq6oWj8cSMgXT-76" style="edgeStyle=orthogonalEdgeStyle;rounded=0;orthogonalLoop=1;jettySize=auto;html=1;exitX=0.5;exitY=1;exitDx=0;exitDy=0;entryX=0.515;entryY=-0.035;entryDx=0;entryDy=0;shadow=1;curved=0;textShadow=1;fontSize=14;entryPerimeter=0;" parent="1" source="3-KLOooi5ENP4IrTd0Cn-23" target="3-KLOooi5ENP4IrTd0Cn-20" edge="1">
          <mxGeometry relative="1" as="geometry">
            <mxPoint x="61.91" y="920" as="sourcePoint" />
            <mxPoint x="21.91" y="920" as="targetPoint" />
          </mxGeometry>
        </mxCell>
        <mxCell id="qkBd6DQFq6oWj8cSMgXT-27" value="&lt;span style=&quot;font-style: normal;&quot;&gt;&lt;b&gt;&lt;font&gt;Bidirectional Transformer&lt;/font&gt;&lt;/b&gt;&lt;/span&gt;" style="rounded=1;html=1;fillColor=#CCE5FF;strokeColor=#3399FF;fontSize=14;fontStyle=2;shadow=1;textShadow=1;labelPosition=center;verticalLabelPosition=middle;align=center;verticalAlign=top;whiteSpace=wrap;" parent="1" vertex="1">
          <mxGeometry x="-568.09" y="410" width="210" height="125" as="geometry" />
        </mxCell>
        <mxCell id="3-KLOooi5ENP4IrTd0Cn-69" value="&lt;div&gt;mDeBERTa-v3 / ModernBERT&lt;/div&gt;" style="rounded=1;html=1;shadow=1;textShadow=1;whiteSpace=wrap;fontSize=14;" parent="1" vertex="1">
          <mxGeometry x="-523.09" y="445" width="120" height="50" as="geometry" />
        </mxCell>
        <mxCell id="qkBd6DQFq6oWj8cSMgXT-32" value="&lt;span style=&quot;font-style: normal;&quot;&gt;&lt;b&gt;&lt;font&gt;Bidirectional Transformer&amp;nbsp;&lt;/font&gt;&lt;/b&gt;&lt;/span&gt;&lt;div&gt;&lt;span style=&quot;font-style: normal;&quot;&gt;&lt;b&gt;&lt;font&gt;with sentiment&lt;/font&gt;&lt;/b&gt;&lt;/span&gt;&lt;/div&gt;" style="rounded=1;html=1;fillColor=#CCE5FF;strokeColor=#3399FF;fontSize=14;fontStyle=2;shadow=1;textShadow=1;labelPosition=center;verticalLabelPosition=middle;align=center;verticalAlign=top;whiteSpace=wrap;container=0;" parent="1" vertex="1">
          <mxGeometry x="-567.32" y="545" width="209.23" height="210" as="geometry" />
        </mxCell>
        <mxCell id="qkBd6DQFq6oWj8cSMgXT-46" value="Classifier" style="rounded=1;html=1;glass=0;shadow=1;textShadow=1;whiteSpace=wrap;fontSize=14;" parent="1" vertex="1">
          <mxGeometry x="-501.93615384615384" y="700.4545454545455" width="78.46153846153847" height="36.36363636363636" as="geometry" />
        </mxCell>
        <mxCell id="qkBd6DQFq6oWj8cSMgXT-60" style="edgeStyle=orthogonalEdgeStyle;rounded=0;orthogonalLoop=1;jettySize=auto;html=1;strokeWidth=4;exitX=0.5;exitY=1;exitDx=0;exitDy=0;entryX=0.5;entryY=0;entryDx=0;entryDy=0;shadow=1;textShadow=1;flowAnimation=0;fontSize=14;" parent="1" source="qkBd6DQFq6oWj8cSMgXT-48" target="qkBd6DQFq6oWj8cSMgXT-46" edge="1">
          <mxGeometry relative="1" as="geometry">
            <mxPoint x="-486.2438461538461" y="655" as="sourcePoint" />
            <mxPoint x="-456.8207692307692" y="682.2727272727273" as="targetPoint" />
            <Array as="points" />
          </mxGeometry>
        </mxCell>
        <mxCell id="qkBd6DQFq6oWj8cSMgXT-43" value="mDeBERTa-v3" style="rounded=1;html=1;glass=0;shadow=1;textShadow=1;whiteSpace=wrap;fontSize=14;" parent="1" vertex="1">
          <mxGeometry x="-558.0900339338235" y="592.7225000000001" width="90.76966628676469" height="38.178000000000004" as="geometry" />
        </mxCell>
        <mxCell id="qkBd6DQFq6oWj8cSMgXT-45" value="twitter-xlm-roberta..." style="rounded=1;html=1;glass=0;shadow=1;textShadow=1;whiteSpace=wrap;fontSize=14;" parent="1" vertex="1">
          <mxGeometry x="-449.6296634558824" y="592.7225000000001" width="81.53970022058823" height="38.178000000000004" as="geometry" />
        </mxCell>
        <mxCell id="qkBd6DQFq6oWj8cSMgXT-48" value="&lt;font&gt;+&lt;/font&gt;" style="ellipse;html=1;aspect=fixed;shadow=1;textShadow=1;whiteSpace=wrap;fontSize=14;" parent="1" vertex="1">
          <mxGeometry x="-475.781875" y="642.459090909091" width="26.15375" height="26.15375" as="geometry" />
        </mxCell>
        <mxCell id="qkBd6DQFq6oWj8cSMgXT-58" style="edgeStyle=orthogonalEdgeStyle;rounded=1;orthogonalLoop=1;jettySize=auto;html=1;strokeWidth=4;exitX=0.5;exitY=1;exitDx=0;exitDy=0;entryX=0;entryY=0.5;entryDx=0;entryDy=0;shadow=1;textShadow=1;flowAnimation=0;curved=0;fontSize=14;" parent="1" source="qkBd6DQFq6oWj8cSMgXT-43" target="qkBd6DQFq6oWj8cSMgXT-48" edge="1">
          <mxGeometry relative="1" as="geometry">
            <mxPoint x="-825.58828125" y="634.7272727272727" as="sourcePoint" />
            <mxPoint x="-825.58828125" y="680.5454545454545" as="targetPoint" />
            <Array as="points" />
          </mxGeometry>
        </mxCell>
        <mxCell id="qkBd6DQFq6oWj8cSMgXT-59" style="edgeStyle=orthogonalEdgeStyle;rounded=1;orthogonalLoop=1;jettySize=auto;html=1;strokeWidth=4;exitX=0.5;exitY=1;exitDx=0;exitDy=0;entryX=1;entryY=0.5;entryDx=0;entryDy=0;shadow=1;textShadow=1;flowAnimation=0;curved=0;fontSize=14;" parent="1" source="qkBd6DQFq6oWj8cSMgXT-45" target="qkBd6DQFq6oWj8cSMgXT-48" edge="1">
          <mxGeometry relative="1" as="geometry">
            <mxPoint x="-492.7818125" y="640.4545454545455" as="sourcePoint" />
            <mxPoint x="-463.35884375" y="669.0909090909091" as="targetPoint" />
            <Array as="points" />
          </mxGeometry>
        </mxCell>
        <mxCell id="3bqJPkgJyI0UPSj8c6nt-4" style="edgeStyle=orthogonalEdgeStyle;rounded=1;orthogonalLoop=1;jettySize=auto;html=1;strokeWidth=4;exitX=0;exitY=0.5;exitDx=0;exitDy=0;entryX=0;entryY=0.5;entryDx=0;entryDy=0;shadow=1;textShadow=1;flowAnimation=0;curved=0;fontSize=14;" parent="1" source="3-KLOooi5ENP4IrTd0Cn-2" target="qkBd6DQFq6oWj8cSMgXT-32" edge="1">
          <mxGeometry relative="1" as="geometry">
            <mxPoint x="-453.09" y="200" as="sourcePoint" />
            <mxPoint x="-453.09" y="230" as="targetPoint" />
            <Array as="points">
              <mxPoint x="-608.09" y="160" />
              <mxPoint x="-608.09" y="650" />
            </Array>
          </mxGeometry>
        </mxCell>
        <mxCell id="3bqJPkgJyI0UPSj8c6nt-6" style="edgeStyle=orthogonalEdgeStyle;rounded=1;orthogonalLoop=1;jettySize=auto;html=1;strokeWidth=4;exitX=0;exitY=0.5;exitDx=0;exitDy=0;entryX=0;entryY=0.5;entryDx=0;entryDy=0;shadow=1;textShadow=1;flowAnimation=0;curved=0;fontSize=14;" parent="1" source="3-KLOooi5ENP4IrTd0Cn-2" target="qkBd6DQFq6oWj8cSMgXT-20" edge="1">
          <mxGeometry relative="1" as="geometry">
            <mxPoint x="-513.09" y="170" as="sourcePoint" />
            <mxPoint x="-557.09" y="660" as="targetPoint" />
            <Array as="points">
              <mxPoint x="-608.09" y="160" />
              <mxPoint x="-608.09" y="311" />
            </Array>
          </mxGeometry>
        </mxCell>
        <mxCell id="3bqJPkgJyI0UPSj8c6nt-7" style="edgeStyle=orthogonalEdgeStyle;rounded=1;orthogonalLoop=1;jettySize=auto;html=1;strokeWidth=4;exitX=0;exitY=0.5;exitDx=0;exitDy=0;entryX=0;entryY=0.5;entryDx=0;entryDy=0;shadow=1;textShadow=1;flowAnimation=0;curved=0;fontSize=14;" parent="1" source="3-KLOooi5ENP4IrTd0Cn-2" target="qkBd6DQFq6oWj8cSMgXT-27" edge="1">
          <mxGeometry relative="1" as="geometry">
            <mxPoint x="-513.09" y="170" as="sourcePoint" />
            <mxPoint x="-558.09" y="321" as="targetPoint" />
            <Array as="points">
              <mxPoint x="-608.09" y="160" />
              <mxPoint x="-608.09" y="473" />
            </Array>
          </mxGeometry>
        </mxCell>
        <mxCell id="3bqJPkgJyI0UPSj8c6nt-13" style="edgeStyle=orthogonalEdgeStyle;rounded=1;orthogonalLoop=1;jettySize=auto;html=1;strokeWidth=4;exitX=1;exitY=0.5;exitDx=0;exitDy=0;entryX=0.5;entryY=0;entryDx=0;entryDy=0;shadow=1;textShadow=1;flowAnimation=0;curved=0;fontSize=14;" parent="1" source="qkBd6DQFq6oWj8cSMgXT-20" target="3-KLOooi5ENP4IrTd0Cn-23" edge="1">
          <mxGeometry relative="1" as="geometry">
            <mxPoint x="-503.09" y="641" as="sourcePoint" />
            <mxPoint x="-466.09" y="666" as="targetPoint" />
            <Array as="points">
              <mxPoint x="-338.09" y="311" />
              <mxPoint x="-338.09" y="770" />
              <mxPoint x="-468.09" y="770" />
            </Array>
          </mxGeometry>
        </mxCell>
        <mxCell id="3bqJPkgJyI0UPSj8c6nt-15" style="edgeStyle=orthogonalEdgeStyle;rounded=1;orthogonalLoop=1;jettySize=auto;html=1;strokeWidth=4;exitX=1;exitY=0.5;exitDx=0;exitDy=0;entryX=0.5;entryY=0;entryDx=0;entryDy=0;shadow=1;textShadow=1;flowAnimation=0;curved=0;fontSize=14;" parent="1" source="qkBd6DQFq6oWj8cSMgXT-27" target="3-KLOooi5ENP4IrTd0Cn-23" edge="1">
          <mxGeometry relative="1" as="geometry">
            <mxPoint x="-399.09" y="641" as="sourcePoint" />
            <mxPoint x="-440.09" y="666" as="targetPoint" />
            <Array as="points">
              <mxPoint x="-338.09" y="473" />
              <mxPoint x="-338.09" y="770" />
              <mxPoint x="-468.09" y="770" />
            </Array>
          </mxGeometry>
        </mxCell>
        <mxCell id="3bqJPkgJyI0UPSj8c6nt-16" style="edgeStyle=orthogonalEdgeStyle;rounded=1;orthogonalLoop=1;jettySize=auto;html=1;strokeWidth=4;exitX=1;exitY=0.5;exitDx=0;exitDy=0;entryX=0.5;entryY=0;entryDx=0;entryDy=0;shadow=1;textShadow=1;flowAnimation=0;curved=0;fontSize=14;" parent="1" source="qkBd6DQFq6oWj8cSMgXT-32" target="3-KLOooi5ENP4IrTd0Cn-23" edge="1">
          <mxGeometry relative="1" as="geometry">
            <mxPoint x="-399.09" y="641" as="sourcePoint" />
            <mxPoint x="-440.09" y="666" as="targetPoint" />
            <Array as="points">
              <mxPoint x="-338.09" y="650" />
              <mxPoint x="-338.09" y="770" />
              <mxPoint x="-468.09" y="770" />
            </Array>
          </mxGeometry>
        </mxCell>
      </root>
    </mxGraphModel>
  </diagram>
</mxfile>
